# WaveFront *.obj file (generated by CINEMA 4D)

mtllib ./CircleFloor.mtl

v 0.00000000000000 0.00000000000000 0.00000000000000
v 0.50000000000000 0.00000000000000 0.00000000000000
v 0.49240387650610 0.00000000000000 0.08682408883347
v 0.46984631039295 0.00000000000000 0.17101007166283
v 0.43301270189222 0.00000000000000 0.25000000000000
v 0.38302222155949 0.00000000000000 0.32139380484327
v 0.32139380484327 0.00000000000000 0.38302222155949
v 0.25000000000000 0.00000000000000 0.43301270189222
v 0.17101007166283 0.00000000000000 0.46984631039295
v 0.08682408883347 0.00000000000000 0.49240387650610
v 0.00000000000000 0.00000000000000 0.50000000000000
v -0.08682408883347 0.00000000000000 0.49240387650610
v -0.17101007166283 0.00000000000000 0.46984631039295
v -0.25000000000000 0.00000000000000 0.43301270189222
v -0.32139380484327 0.00000000000000 0.38302222155949
v -0.38302222155949 0.00000000000000 0.32139380484327
v -0.43301270189222 0.00000000000000 0.25000000000000
v -0.46984631039295 0.00000000000000 0.17101007166283
v -0.49240387650610 0.00000000000000 0.08682408883347
v -0.50000000000000 0.00000000000000 0.00000000000000
v -0.49240387650610 0.00000000000000 -0.08682408883347
v -0.46984631039295 0.00000000000000 -0.17101007166283
v -0.43301270189222 0.00000000000000 -0.25000000000000
v -0.38302222155949 0.00000000000000 -0.32139380484327
v -0.32139380484327 0.00000000000000 -0.38302222155949
v -0.25000000000000 0.00000000000000 -0.43301270189222
v -0.17101007166283 0.00000000000000 -0.46984631039295
v -0.08682408883347 0.00000000000000 -0.49240387650610
v -0.00000000000000 0.00000000000000 -0.50000000000000
v 0.08682408883346 0.00000000000000 -0.49240387650610
v 0.17101007166283 0.00000000000000 -0.46984631039295
v 0.25000000000000 0.00000000000000 -0.43301270189222
v 0.32139380484327 0.00000000000000 -0.38302222155949
v 0.38302222155949 0.00000000000000 -0.32139380484327
v 0.43301270189222 0.00000000000000 -0.25000000000000
v 0.46984631039295 0.00000000000000 -0.17101007166283
v 0.49240387650610 0.00000000000000 -0.08682408883347
# 37 vertices

vn 0.00000000000000 1.00000000000000 0.00000000000000
vn 0.00000000000000 0.00000000000000 0.00000000000000
vn -0.00000000000000 1.00000000000000 0.00000000000000
vn 0.00000000000000 1.00000000000000 -0.00000000000000
# 4 normals

vt 1.00000000000000 -0.50000000000000 0.00000000000000
vt 0.50000000000000 -0.50000000000000 0.00000000000000
vt 0.99240386486053 -0.41317588090897 0.00000000000000
vt 0.96984630823135 -0.32898992300034 0.00000000000000
vt 0.93301272392273 -0.25000000000000 0.00000000000000
vt 0.88302224874496 -0.17860618233681 0.00000000000000
vt 0.82139378786087 -0.11697778105736 0.00000000000000
vt 0.75000000000000 -0.06698729097843 0.00000000000000
vt 0.67101007699966 -0.03015368804336 0.00000000000000
vt 0.58682405948639 -0.00759612303227 0.00000000000000
vt 0.50000000000000 -0.00000000000000 0.00000000000000
vt 0.41317591071129 -0.00759612303227 0.00000000000000
vt 0.32898992300034 -0.03015368804336 0.00000000000000
vt 0.25000000000000 -0.06698729097843 0.00000000000000
vt 0.17860619723797 -0.11697778105736 0.00000000000000
vt 0.11697778105736 -0.17860618233681 0.00000000000000
vt 0.06698729842901 -0.25000000000000 0.00000000000000
vt 0.03015368990600 -0.32898992300034 0.00000000000000
vt 0.00759612349793 -0.41317588090897 0.00000000000000
vt 0.00000000000000 -0.50000000000000 0.00000000000000
vt 0.00759612349793 -0.58682405948639 0.00000000000000
vt 0.03015368990600 -0.67101001739502 0.00000000000000
vt 0.06698729842901 -0.75000000000000 0.00000000000000
vt 0.11697778105736 -0.82139372825623 0.00000000000000
vt 0.17860619723797 -0.88302218914032 0.00000000000000
vt 0.25000000000000 -0.93301272392273 0.00000000000000
vt 0.32898992300034 -0.96984624862671 0.00000000000000
vt 0.41317591071129 -0.99240386486053 0.00000000000000
vt 0.50000000000000 -1.00000000000000 0.00000000000000
vt 0.58682405948639 -0.99240386486053 0.00000000000000
vt 0.67101007699966 -0.96984624862671 0.00000000000000
vt 0.75000000000000 -0.93301272392273 0.00000000000000
vt 0.82139378786087 -0.88302218914032 0.00000000000000
vt 0.88302224874496 -0.82139372825623 0.00000000000000
vt 0.93301272392273 -0.75000000000000 0.00000000000000
vt 0.96984630823135 -0.67101001739502 0.00000000000000
vt 0.99240386486053 -0.58682405948639 0.00000000000000
# 37 texture coordinates

o Kruh
usemtl default
f 2/3/1 1/3/1 3/2/1
f 3/4/1 1/4/1 4/2/1
f 4/5/1 1/5/1 5/2/1
f 5/6/1 1/6/1 6/2/1
f 6/7/1 1/7/1 7/2/1
f 7/8/1 1/8/1 8/2/1
f 8/9/1 1/9/1 9/2/1
f 9/10/1 1/10/1 10/2/1
f 10/11/1 1/11/1 11/2/1
f 11/12/1 1/12/1 12/2/1
f 12/13/1 1/13/1 13/2/1
f 13/14/1 1/14/1 14/2/1
f 14/15/1 1/15/1 15/2/1
f 15/16/1 1/16/1 16/2/1
f 16/17/1 1/17/1 17/2/1
f 17/18/1 1/18/1 18/2/1
f 18/19/1 1/19/1 19/2/1
f 19/20/1 1/20/1 20/2/1
f 20/21/1 1/21/1 21/2/1
f 21/22/1 1/22/1 22/2/3
f 22/23/3 1/23/1 23/2/3
f 23/24/3 1/24/1 24/2/3
f 24/25/3 1/25/1 25/2/3
f 25/26/3 1/26/1 26/2/3
f 26/27/3 1/27/1 27/2/3
f 27/28/3 1/28/1 28/2/3
f 28/29/3 1/29/1 29/2/1
f 29/30/1 1/30/1 30/2/1
f 30/31/1 1/31/1 31/2/4
f 31/32/4 1/32/1 32/2/4
f 32/33/4 1/33/1 33/2/4
f 33/34/4 1/34/1 34/2/4
f 34/35/4 1/35/1 35/2/4
f 35/36/4 1/36/1 36/2/4
f 36/37/4 1/37/1 37/2/4
f 37/1/4 1/1/1 2/2/1

